<svg width="24" height="24" viewBox="0 0 24 24" fill="none" xmlns="http://www.w3.org/2000/svg">
<path d="M12.788 21.5029L2.99805 11.7129V13.7129C2.99805 14.2429 3.20805 14.7529 3.58805 15.1229L11.378 22.9129C12.158 23.6929 13.428 23.6929 14.208 22.9129L20.418 16.7029C21.198 15.9229 21.198 14.6529 20.418 13.8729L12.788 21.5029Z" fill="#42493F"/>
<path d="M11.378 17.9129C11.768 18.3029 12.278 18.5029 12.788 18.5029C13.298 18.5029 13.808 18.3029 14.198 17.9129L20.408 11.7029C21.188 10.9229 21.188 9.65293 20.408 8.87293L12.618 1.08293C12.248 0.71293 11.738 0.50293 11.208 0.50293H4.99805C3.89805 0.50293 2.99805 1.40293 2.99805 2.50293V8.71293C2.99805 9.24293 3.20805 9.75293 3.58805 10.1229L11.378 17.9129ZM4.99805 2.50293H11.208L18.998 10.2929L12.788 16.5029L4.99805 8.71293V2.50293Z" fill="#42493F"/>
<path d="M7.24805 6.00293C7.9384 6.00293 8.49805 5.44329 8.49805 4.75293C8.49805 4.06257 7.9384 3.50293 7.24805 3.50293C6.55769 3.50293 5.99805 4.06257 5.99805 4.75293C5.99805 5.44329 6.55769 6.00293 7.24805 6.00293Z" fill="#42493F"/>
</svg>
