<svg width="24" height="25" viewBox="0 0 24 25" fill="none" xmlns="http://www.w3.org/2000/svg">
<path d="M19.0508 5.41C17.1808 3.53 14.6908 2.5 12.0408 2.5C6.58078 2.5 2.13078 6.95 2.13078 12.41C2.13078 14.16 2.59078 15.86 3.45078 17.36L2.05078 22.5L7.30078 21.12C8.75078 21.91 10.3808 22.33 12.0408 22.33C17.5008 22.33 21.9508 17.88 21.9508 12.42C21.9508 9.77 20.9208 7.28 19.0508 5.41ZM12.0408 20.65C10.5608 20.65 9.11078 20.25 7.84078 19.5L7.54078 19.32L4.42078 20.14L5.25078 17.1L5.05078 16.79C4.23078 15.48 3.79078 13.96 3.79078 12.41C3.79078 7.87 7.49078 4.17 12.0308 4.17C14.2308 4.17 16.3008 5.03 17.8508 6.59C19.4108 8.15 20.2608 10.22 20.2608 12.42C20.2808 16.96 16.5808 20.65 12.0408 20.65ZM16.5608 14.49C16.3108 14.37 15.0908 13.77 14.8708 13.68C14.6408 13.6 14.4808 13.56 14.3108 13.8C14.1408 14.05 13.6708 14.61 13.5308 14.77C13.3908 14.94 13.2408 14.96 12.9908 14.83C12.7408 14.71 11.9408 14.44 11.0008 13.6C10.2608 12.94 9.77078 12.13 9.62078 11.88C9.48078 11.63 9.60078 11.5 9.73078 11.37C9.84078 11.26 9.98078 11.08 10.1008 10.94C10.2208 10.8 10.2708 10.69 10.3508 10.53C10.4308 10.36 10.3908 10.22 10.3308 10.1C10.2708 9.98 9.77078 8.76 9.57078 8.26C9.37078 7.78 9.16078 7.84 9.01078 7.83C8.86078 7.83 8.70078 7.83 8.53078 7.83C8.36078 7.83 8.10078 7.89 7.87078 8.14C7.65078 8.39 7.01078 8.99 7.01078 10.21C7.01078 11.43 7.90078 12.61 8.02078 12.77C8.14078 12.94 9.77078 15.44 12.2508 16.51C12.8408 16.77 13.3008 16.92 13.6608 17.03C14.2508 17.22 14.7908 17.19 15.2208 17.13C15.7008 17.06 16.6908 16.53 16.8908 15.95C17.1008 15.37 17.1008 14.88 17.0308 14.77C16.9608 14.66 16.8108 14.61 16.5608 14.49Z" fill="#111F0F"/>
</svg>
